<?xml version="1.0" encoding="UTF-8"?>
<svg width="606px" height="730px" viewBox="0 0 606 730" version="1.1" xmlns="http://www.w3.org/2000/svg" xmlns:xlink="http://www.w3.org/1999/xlink">
    <title>geo</title>
    <g id="geoshapes" stroke="none" stroke-width="1" fill="none" fill-rule="evenodd">
        <g id="geo" transform="translate(0.151859, 0.041617)">
            <g id="primary" transform="translate(35.402760, 17.924622)">
                <polygon id="primarythree" fill="#FFCD00" transform="translate(306.666382, 214.502761) rotate(-180.000000) translate(-306.666382, -214.502761) " points="213.666382 237.971761 276.866515 237.849691 399.666382 225.971761 288.300382 191.033761"></polygon>
                <polygon id="primarythree" fill="#FFCD00" transform="translate(253.357571, 128.743869) rotate(-180.000000) translate(-253.357571, -128.743869) " points="129.04876 200.453978 266.62706 203.033761 377.666382 178.69702 293.04876 54.4539775"></polygon>
                <polygon id="primarythree" fill="#FFCD00" transform="translate(282.693508, 29.022602) rotate(-180.000000) translate(-282.693508, -29.022602) " points="367.450645 58.0114424 373.634931 50.6480605 191.752086 0.0337612526 203.563306 58.0114424"></polygon>
                <polygon id="primarytwo" fill="#CDA606" transform="translate(299.835518, 129.555734) rotate(-180.000000) translate(-299.835518, -129.555734) " points="213.83796 151.40157 385.833077 56.1741421 225.540352 202.937326"></polygon>
                <polygon id="primarytwo" fill="#CDA606" transform="translate(99.054822, 39.423253) rotate(-180.000000) translate(-99.054822, -39.423253) " points="198.109644 78.8127441 68.9784712 0 4.23069292 33.2813477 0 78.8465054"></polygon>
                <polyline id="primaryone" fill="#DAAA00" transform="translate(306.666382, 154.712261) rotate(-180.000000) translate(-306.666382, -154.712261) " points="399.666382 106.390761 213.666382 118.390761 227.562382 203.033761 399.666382 106.390761"></polyline>
                <polygon id="primaryone" fill="#DAAA00" transform="translate(250.749878, 39.415597) rotate(-180.000000) translate(-250.749878, -39.415597) " points="372.45086 0.0337612527 258.590912 9.97147984 129.048897 21.2779324 303.563385 78.7974331"></polygon>
            </g>
            <g id="tertiary" transform="translate(386.461532, 0.000000)">
                <polygon id="tertiarythree" fill="#0FAEBF" transform="translate(166.084732, 220.263647) rotate(6.000000) translate(-166.084732, -220.263647) " points="188.439073 323.808319 207.173039 206.500351 197.736637 116.718975 124.996424 140.769925"></polygon>
                <polygon id="tertiarytwo" fill="#00A0B1" transform="translate(115.712967, 234.137036) rotate(6.000000) translate(-115.712967, -234.137036) " points="186.712967 318.619036 142.414967 149.655036 92.9997607 171.181352 44.7129672 216.619036"></polygon>
                <path d="M208.38661,325.577755 L177.493248,325.577755 L208.38661,204.471201 L208.38661,325.577755 Z" id="tertiaryone" fill="#038694"></path>
                <polygon id="tertiarytwo" fill="#00A0B1" transform="translate(168.845536, 105.477473) rotate(6.000000) translate(-168.845536, -105.477473) " points="206.432285 84.8110607 130.438862 56.4508554 127.551975 77.1197787 134.07268 128.073922 156.154619 154.504091 210.139097 120.07902"></polygon>
                <path d="M208.38661,102.651163 L135.785815,52.7234168 L161.345914,29.9454221 L208.38661,17.9583833 L208.38661,102.651163 Z" id="tertiaryone" fill="#038694"></path>
                <path d="M4.91481466,24.5838079 L34.6783095,122.850595 L136.692309,58.6935949 L133.375309,46.0385949 C114.601893,36.8805506 99.1198622,30.8732901 86.9292174,28.0168136 C74.7385727,25.160337 55.8910692,23.1236006 30.3867069,21.9066041 L4.91481466,24.5838079 Z" id="tertiarytwo" fill="#00A0B1" transform="translate(70.803562, 72.378600) rotate(6.000000) translate(-70.803562, -72.378600) "></path>
                <polygon id="tertiarythree" fill="#0FAEBF" transform="translate(120.751668, 29.945422) rotate(6.000000) translate(-120.751668, -29.945422) " points="34.8497872 26.9210068 138.084405 51.0271403 206.653549 8.86370377"></polygon>
                <polyline id="tertiaryone" fill="#038694" transform="translate(86.850134, 169.152054) rotate(6.000000) translate(-86.850134, -169.152054) " points="51.3476339 213.246054 149.049634 146.282054 24.6506339 125.058054 51.3476339 213.246054"></polyline>
                <polygon id="tertiarythree" fill="#0FAEBF" transform="translate(94.363925, 97.663110) rotate(6.000000) translate(-94.363925, -97.663110) " points="34.4059613 133.249495 156.563425 146.675835 130.974527 48.6503844 32.1644247 125.451835"></polygon>
            </g>
            <g id="secondary" transform="translate(249.069141, 208.811906)">
                <polygon id="secondarythree" fill="#2088E9" transform="translate(55.683000, 56.165977) rotate(-180.000000) translate(-55.683000, -56.165977) " points="111.366 100.185477 84.9442998 12.1464772 19.7002507 32.4960851 0 65.2474772"></polygon>
                <polygon id="secondarythree" fill="#2088E9" transform="translate(259.654565, 62.721947) rotate(-180.000000) translate(-259.654565, -62.721947) " points="250.020957 116.146477 314.779 52.0693745 204.530129 9.29741711"></polygon>
                <polygon id="secondarythree" fill="#2088E9" transform="translate(248.424020, 254.838419) rotate(-180.000000) translate(-248.424020, -254.838419) " points="240.42402 206.53036 151.069039 270.304972 151.069039 282.462322 224.229867 303.146477 345.779 303.146477 280.406258 225.815371"></polygon>
                <polygon id="secondarytwo" fill="#1567B3" transform="translate(227.038920, 30.532296) rotate(-180.000000) translate(-227.038920, -30.532296) " points="231.616803 0.14647717 269.293587 60.9181141 184.784253 51.76339"></polygon>
                <polygon id="secondarytwo" fill="#1567B3" transform="translate(154.248727, 238.746735) rotate(-180.000000) translate(-154.248727, -238.746735) " points="151.718453 186.346993 48.029 259.261993 141.928384 281.461251 201.352547 291.146477 260.468453 281.461251"></polygon>
                <polygon id="secondaryone" fill="#12508A" transform="translate(170.600350, 58.073239) rotate(-180.000000) translate(-170.600350, -58.073239) " points="26.4217002 1.12185189e-11 156.186414 3.70699179 308.366402 8.05432129 314.779 15.961 156.508528 116.146477"></polygon>
                <polygon id="secondarytwo" fill="#1567B3" transform="translate(98.544930, 148.108848) rotate(-180.000000) translate(-98.544930, -148.108848) " points="26.4217002 188.02288 79.2413108 138.547049 143.325448 102.776328 149.06086 100.185477 170.66816 196.032219"></polygon>
                <polygon id="secondarythree" fill="#2088E9" transform="translate(113.854668, 157.670647) rotate(-180.000000) translate(-113.854668, -157.670647) " points="57.0411765 207.146477 108.271208 170.454177 179.680337 119.309075 174.349007 118.406945 76.1915977 108.194817 48.029 157.674286"></polygon>
                <polygon id="secondarytwo" fill="#1567B3" transform="translate(248.647462, 157.667008) rotate(-180.000000) translate(-248.647462, -157.667008) " points="151.515923 198.568167 151.515923 174.53492 345.779 108.194817 326.626763 207.139199 247.208773 203.25198"></polygon>
                <polygon id="secondaryone" fill="#12508A" transform="translate(248.642815, 172.090538) rotate(-180.000000) translate(-248.642815, -172.090538) " points="151.506631 116.146477 151.506631 228.0346 345.779 137.040474"></polygon>
            </g>
            <g id="quarternary" transform="translate(397.379518, 436.026421)">
                <polygon id="quarternaryone" fill="#BA0C2F" transform="translate(156.776739, 56.646951) rotate(6.000000) translate(-156.776739, -56.646951) " points="110.386102 80.9140415 192.218609 4.56382517 203.166923 108.730077 155.115763 106.604964"></polygon>
                <polygon id="quarternarythree" fill="#CB3F5B" transform="translate(54.513750, 103.973325) rotate(6.000000) translate(-54.513750, -103.973325) " points="4.12099319 68.5283548 54.6579348 61.907749 104.906507 70.4565535 56.6134789 146.0389"></polygon>
                <polygon id="quarternarytwo" fill="#920824" transform="translate(111.637814, 114.292904) rotate(6.000000) translate(-111.637814, -114.292904) " points="55.8117292 152.101633 167.463899 124.633817 158.622626 105.328956 104.140749 76.4841758"></polygon>
                <polygon id="quarternarythree" fill="#CB3F5B" transform="translate(151.656259, 109.384393) rotate(6.000000) translate(-151.656259, -109.384393) " points="120.176872 138.128433 104.873053 80.6403531 151.233461 93.8125818 197.464914 106.948171 198.439465 116.220408"></polygon>
                <polygon id="quarternarytwo" fill="#920824" transform="translate(145.441890, 162.981871) rotate(6.000000) translate(-145.441890, -162.981871) " points="115.503598 212.71932 169.7174 169.649328 193.779198 125.152727 192.527585 113.244422 114.564384 137.898381 97.1045809 176.229582"></polygon>
                <polygon id="quarternarythree" fill="#CB3F5B" transform="translate(80.699260, 183.705153) rotate(6.000000) translate(-80.699260, -183.705153) " points="48.7762283 218.206345 48.4157614 149.203961 88.5061204 165.913815 112.982758 206.065397"></polygon>
                <polygon id="quarternarythree" fill="#CB3F5B" points="110.468624 208.931962 197.468624 130.412583 197.468624 192.97255"></polygon>
                <polygon id="quarternaryone" fill="#BA0C2F" points="52.1807819 146.0439 117.468624 134.931962 110.484371 209.368607"></polygon>
                <polygon id="quarternarytwo" fill="#920824" points="197.468624 293.084412 197.468624 190.268449 110.455562 208.875077"></polygon>
                <polygon id="quarternaryone" fill="#BA0C2F" transform="translate(60.166717, 50.221168) rotate(6.000000) translate(-60.166717, -50.221168) " points="9.7705911 68.8247908 55.4850589 29.6655976 110.562844 70.7767378"></polygon>
            </g>
            <polygon id="primaryfloattwo" fill="#FFCD00" points="145.350375 133 145.350375 186 107.350375 133"></polygon>
            <polyline id="primaryfloatone" fill="#CDA606" points="40.1608358 103.958383 0 134.275483 67.0750448 141.181063 40.1608358 103.958383"></polyline>
            <polygon id="secondaryfloattwo" fill="#12508A" transform="translate(301.044356, 502.801497) rotate(22.000000) translate(-301.044356, -502.801497) " points="273.52104 519.770145 320.12591 510.209213 328.567672 485.832848"></polygon>
            <polygon id="secondaryfloatone" fill="#2088E9" points="228.833753 431.147688 223.055372 461.244001 246.906507 464.033064"></polygon>
            <polygon id="quarternaryfloatone" fill="#BA0C2F" transform="translate(396.578611, 626.294870) rotate(-151.000000) translate(-396.578611, -626.294870) " points="388.371512 609.852182 386.712956 635.86635 406.444266 642.737558"></polygon>
            <polygon id="quarternaryfloattwo" fill="#CB3F5B" transform="translate(495.329641, 677.329247) rotate(-151.000000) translate(-495.329641, -677.329247) " points="483.577709 664.739093 484.175867 689.919401 507.081572 675.44851"></polygon>
            <polyline id="tertiaryfloattwo" fill="#038694" transform="translate(193.119101, 236.294607) rotate(142.000000) translate(-193.119101, -236.294607) " points="209.200101 223.473107 174.874101 249.116107 211.364101 241.557107 209.200101 223.473107"></polyline>
            <polygon id="tertiaryfloatone" fill="#0FAEBF" points="169.101257 296.958383 157.848141 337.958383 198.848141 320.884496"></polygon>
        </g>
    </g>
</svg>