<?xml version="1.0" encoding="UTF-8"?>
<svg width="120px" height="20px" viewBox="0 0 120 20" version="1.1" xmlns="http://www.w3.org/2000/svg" xmlns:xlink="http://www.w3.org/1999/xlink">
    <title>ucdavis</title>
    <g id="Main" stroke="none" strokeWidth="1" fill="none" fillRule="evenodd">
        <g id="Artboard-Copy-3" transform="translate(-613.000000, -175.000000)" fill="#1f1f1f">
            <g id="Group-2" transform="translate(613.000000, 168.000000)">
                <g id="ucdavis" transform="translate(0.000000, 7.000000)">
                    <path d="M105.180464,18.2175155 L107.101358,13.1243119 L107.436607,13.4132515 C108.615847,14.3782215 110.215431,15.1979865 111.726251,15.230336 C113.076783,15.2619502 113.73701,14.9016948 113.557282,13.756597 C113.423402,12.9011741 112.459837,12.750455 111.858663,12.6313501 L110.537108,12.3670402 C107.966623,11.8862095 105.805846,10.2966741 105.805846,7.28743813 C105.805846,2.73719102 109.72026,0.184891315 113.657049,0.184891315 C115.727229,0.184891315 117.622815,0.712775857 119.39956,1.87037225 L117.731752,6.383491 C116.816971,5.72326771 115.431594,4.79395565 113.67759,4.72962432 C113.100991,4.70756786 111.782004,5.01084414 112.204916,6.35408239 C112.386845,6.92534463 113.204793,7.1653924 113.706933,7.28743813 L115.197213,7.64806121 C117.984106,8.29799148 120,9.88752683 120,13.1360754 C120,17.710217 116.06101,19.9750475 112.146963,19.9750475 C109.865143,19.9750475 107.220933,19.324382 105.180464,18.2175155" id="Fill-10"></path>
                    <polygon id="Fill-11" points="97.1733732 19.6883136 103.762809 19.6883136 103.762809 0.497357792 97.1733732 0.497357792"></polygon>
                    <polyline id="Fill-12" points="89.6156041 0.497357792 96.4841692 0.497357792 89.4699873 19.6883136 83.8980353 19.6883136 76.9080617 0.497357792 83.7516849 0.497357792 86.6849283 12.0773654 89.6156041 0.497357792"></polyline>
                    <path d="M60.6437279,19.6883136 L67.6102267,19.6883136 L68.1380418,17.2779104 L73.1106541,17.2779104 L73.7712482,19.6883136 L80.7388475,19.6883136 L74.2150677,0.497357792 L66.9092854,0.497357792 L60.6437279,19.6883136 Z M70.6362687,6.0364694 L70.6362687,6.0364694 C70.758044,6.85366114 71.9570902,12.7265605 71.9570902,12.7265605 L69.3238835,12.7265605 L70.6362687,6.0364694 L70.6362687,6.0364694 Z" id="Fill-13"></path>
                    <path d="M50.1699547,14.1778754 L50.6207432,14.1778754 C52.8306709,14.1778754 54.4698687,12.8489738 54.4698687,10.3451983 C54.4698687,7.64806121 53.0166349,6.14381083 50.5895658,6.14381083 L50.1699547,6.14381083 L50.1699547,14.1778754 Z M43.5390714,0.497357792 L50.2891624,0.497357792 C56.4160721,0.497357792 61.0985512,3.31654063 61.0985512,10.369828 C61.0985512,16.0523066 57.28097,19.6883136 51.9232251,19.6883136 L43.5390714,19.677653 L43.5390714,0.497357792 L43.5390714,0.497357792 Z" id="Fill-14"></path>
                    <path d="M39.5281903,1.09949907 L39.8850799,4.24732312 C39.969809,4.99613984 40.3945553,6.78932981 39.8704081,6.54891443 C39.5399277,6.40076855 39.269968,5.58651768 38.9996416,4.86600674 C38.8624611,4.49950195 38.2095696,2.76623202 38.038644,2.63867218 C37.2140935,2.01925334 35.1563849,1.3226369 33.7644056,1.31675518 C29.5415181,1.30058044 26.7483897,4.42156913 26.7483897,9.96031313 C26.7483897,13.9312106 28.6461765,18.697611 33.4746391,18.697611 C35.2044348,18.697611 38.5180425,18.1517137 39.4203532,15.6854342 C39.8267598,14.5686423 40.2005218,13.5775721 40.4708482,13.8771723 C40.6700168,14.0981045 40.4103274,14.9921262 40.2900193,15.4722218 C39.7207566,17.7602116 39.689946,18.4527844 39.5094839,18.5410102 C37.3281661,19.6379513 34.5310029,19.9996772 32.0819262,19.9996772 C24.2978459,19.9996772 21.6077862,15.4486949 21.6077862,10.8988154 C21.6077862,3.0018685 26.448353,-0.266530842 33.9544043,0.016894633 C35.8510908,0.0882105112 37.7496112,0.426409521 39.5281903,1.09949907" id="Fill-15"></path>
                    <path d="M16.5383406,1.44909392 L15.2930785,1.01311128 C14.8731005,0.635210649 15.3833096,0.530442478 15.3833096,0.530442478 C15.3833096,0.530442478 17.1849966,0.864597804 21.6749094,0.48522674 C21.6749094,0.48522674 22.0648103,0.561689125 21.7941171,0.878934501 L20.3225437,1.510852 C19.3630133,1.93029229 19.3630133,1.6895093 19.3630133,2.74307274 L19.354577,12.5232735 C19.354577,20.1724528 11.5903035,19.9996772 10.0769157,19.9996772 C9.35726789,19.9996772 2.29283532,19.9996772 2.29283532,13.8591595 L2.29283532,3.50769659 C2.29283532,1.70164035 2.48503483,1.75089977 1.88642871,1.53842257 L0.0847416494,0.86055412 C0.0847416494,0.86055412 -0.218962928,0.428615167 0.323523872,0.456185738 C1.79546405,0.530442478 3.92799837,0.847320246 8.88263779,0.48522674 C8.88263779,0.48522674 9.31728746,0.590730127 9.03192253,0.906505072 L7.59152654,1.32888623 C6.45006682,1.84059603 6.60118553,1.44909392 6.57037492,2.62249744 L6.60558704,12.8302258 C6.60558704,15.3340013 7.89119639,18.4318307 11.878236,18.4318307 C17.3808641,18.4318307 17.4322151,13.6628571 17.4322151,12.6034119 L17.4417517,2.4901587 C17.5004386,1.53842257 17.3808641,1.80971699 16.5383406,1.44909392" id="Fill-17"></path>
                </g>
            </g>
        </g>
    </g>
</svg>